<?xml version="1.0" encoding="UTF-8"?>
<svg xmlns="http://www.w3.org/2000/svg" xmlns:xlink="http://www.w3.org/1999/xlink" width="3000" height="3000" viewBox="0 0 3000 3000">

<path fill-rule="evenodd" fill="white" fill-opacity="1" d="M 1142.101562 1841.941406 C 1130.699219 1841.941406 1121.578125 1835.109375 1119.300781 1823.710938 C 1117.019531 1812.308594 1126.140625 1798.628906 1137.539062 1796.359375 C 1237.839844 1780.398438 1324.46875 1712.011719 1363.21875 1620.820312 C 1367.78125 1611.699219 1374.621094 1607.140625 1383.738281 1607.140625 L 1636.769531 1607.140625 L 1636.769531 1602.578125 C 1636.769531 1588.898438 1645.890625 1579.78125 1659.570312 1579.78125 L 1753.039062 1579.789062 C 1766.71875 1579.789062 1775.828125 1588.910156 1775.828125 1602.589844 L 1775.828125 1607.148438 L 1798.628906 1607.140625 L 1798.628906 1602.578125 C 1798.628906 1588.898438 1807.75 1579.78125 1821.429688 1579.78125 L 1917.171875 1579.789062 C 1930.851562 1579.789062 1939.96875 1588.910156 1939.96875 1602.589844 L 1939.96875 1607.148438 L 1967.320312 1607.140625 L 1967.320312 1602.578125 C 1967.320312 1588.898438 1976.441406 1579.78125 1990.121094 1579.78125 L 2085.871094 1579.789062 C 2099.550781 1579.789062 2108.660156 1588.910156 2108.660156 1602.589844 L 2108.660156 1607.148438 L 2129.171875 1607.140625 L 2186.160156 1518.238281 L 1440.730469 1518.238281 C 1427.050781 1518.238281 1417.929688 1509.121094 1417.929688 1495.441406 C 1417.929688 1481.761719 1427.050781 1472.640625 1440.730469 1472.640625 L 2183.890625 1472.640625 L 2129.171875 1395.140625 L 2026.589844 1395.140625 C 2012.910156 1395.140625 2003.789062 1386.019531 2003.789062 1372.339844 C 2003.789062 1358.660156 2012.910156 1349.539062 2026.589844 1349.539062 L 2140.570312 1349.539062 C 2147.410156 1349.539062 2154.25 1354.109375 2158.808594 1358.660156 L 2245.441406 1481.761719 C 2247.71875 1486.320312 2250 1490.878906 2250 1495.441406 C 2250 1500 2247.71875 1504.558594 2245.441406 1509.121094 L 2158.808594 1643.621094 C 2154.25 1650.460938 2147.410156 1655.019531 2140.570312 1655.019531 L 2085.871094 1655.011719 C 2072.191406 1655.011719 2063.070312 1645.890625 2063.070312 1632.21875 L 2063.070312 1627.648438 L 2012.921875 1627.660156 L 2012.921875 1632.21875 C 2012.921875 1645.898438 2003.800781 1655.019531 1990.121094 1655.019531 L 1917.171875 1655.011719 C 1903.488281 1655.011719 1894.371094 1645.890625 1894.371094 1632.21875 L 1894.371094 1627.648438 L 1844.21875 1627.660156 L 1844.21875 1632.21875 C 1844.21875 1645.898438 1835.101562 1655.019531 1821.421875 1655.019531 L 1753.039062 1655.011719 C 1739.359375 1655.011719 1730.238281 1645.890625 1730.238281 1632.21875 L 1730.238281 1627.648438 L 1682.371094 1627.660156 L 1682.371094 1632.21875 C 1682.371094 1645.898438 1673.25 1655.019531 1659.570312 1655.019531 L 1397.421875 1655.011719 C 1349.550781 1753.03125 1253.800781 1825.980469 1144.378906 1844.21875 C 1144.371094 1841.941406 1142.101562 1841.941406 1142.101562 1841.941406 Z M 982.519531 1828.269531 C 980.238281 1828.269531 977.957031 1828.269531 975.683594 1825.988281 C 838.902344 1778.121094 750 1648.179688 750 1502.28125 C 750 1415.660156 781.914062 1333.589844 838.902344 1269.761719 C 848.019531 1260.648438 861.699219 1260.648438 870.820312 1267.480469 C 879.9375 1276.601562 879.9375 1290.28125 873.101562 1299.398438 C 822.949219 1354.109375 795.59375 1424.78125 795.59375 1500 C 795.59375 1625.378906 875.382812 1737.089844 991.644531 1780.398438 C 1003.039062 1784.960938 1009.878906 1798.640625 1005.320312 1810.039062 C 1000.761719 1821.429688 991.636719 1828.269531 982.519531 1828.269531 Z M 975.683594 1616.261719 C 911.851562 1616.261719 861.699219 1566.109375 861.699219 1502.28125 C 861.699219 1438.449219 914.132812 1388.300781 975.683594 1388.300781 C 1037.230469 1388.300781 1089.671875 1440.730469 1089.671875 1502.28125 C 1089.671875 1566.109375 1037.230469 1616.261719 975.683594 1616.261719 Z M 975.683594 1433.890625 C 936.929688 1433.890625 907.296875 1465.808594 907.296875 1502.28125 C 907.296875 1541.03125 936.929688 1570.660156 975.683594 1570.660156 C 1012.148438 1570.660156 1044.070312 1541.03125 1044.070312 1502.28125 C 1044.070312 1465.808594 1012.148438 1433.890625 975.683594 1433.890625 Z M 1869.300781 1395.140625 L 1383.738281 1395.140625 C 1374.621094 1395.140625 1365.5 1390.578125 1363.21875 1381.460938 C 1315.351562 1274.308594 1208.199219 1203.648438 1089.671875 1203.648438 C 1066.871094 1203.648438 1041.800781 1205.929688 1016.71875 1210.480469 C 1005.320312 1212.761719 991.636719 1205.921875 989.363281 1192.25 C 987.082031 1180.851562 993.925781 1167.171875 1007.601562 1164.890625 C 1037.230469 1158.058594 1064.589844 1155.769531 1089.671875 1155.769531 C 1221.878906 1155.769531 1340.429688 1231.011719 1397.421875 1347.261719 L 1867.019531 1347.261719 C 1880.699219 1347.261719 1889.820312 1356.378906 1889.820312 1370.058594 C 1889.820312 1383.738281 1880.699219 1395.140625 1869.300781 1395.140625 "/>
</svg>
